<!-- Generated by IcoMoon.io -->
<svg version="1.1" xmlns="http://www.w3.org/2000/svg" width="31" height="32" viewBox="0 0 31 32">
<title>fruit</title>
<path fill="#ffa5ba" d="M19.169 0.442c0.198 0.395 0.037 0.876-0.358 1.073-0.399 0.2-1.44 1.146-1.566 3.263 1.355-0.887 2.967-0.942 4.238-0.133 1.546 0.984 2.258 3.018 1.59 5.595l0.98-0v0.8c0 0.807-0.118 1.789-0.407 2.829l-1.070 7.275c0.626 0.051 1.127 0.18 1.534 0.345 0.057-0.584 0.165-1.124 0.357-1.618 0.352-0.906 0.962-1.597 1.894-2.156 0.379-0.227 0.87-0.104 1.098 0.274s0.104 0.87-0.274 1.098c-0.668 0.401-1.018 0.83-1.226 1.364-0.080 0.205-0.142 0.434-0.188 0.693 0.774-0.338 1.769-0.451 2.918 0.041 1.394 0.598 2.091 1.709 2.379 2.814 0.281 1.078 0.187 2.178 0.002 2.916-0.192 0.77-0.822 2.109-1.863 3.104-1.020 0.976-2.508 1.673-4.332 1.080-0.913 0.349-1.764 0.382-2.534 0.16-0.674-0.195-1.234-0.57-1.691-1.009l-0.238 1.43h-16.378l-3.51-18.135c-0.277-0.898-0.422-1.743-0.468-2.453l-0.055-0.852h0.56c-0.061-0.838 0.044-1.816 0.525-2.666 0.357-0.632 0.914-1.173 1.713-1.508 0.318-0.133 0.666-0.23 1.046-0.29-0.391-0.693-0.554-1.449-0.575-2.169-0.037-1.249 0.343-2.436 0.708-3.165 0.198-0.395 0.678-0.555 1.073-0.358s0.555 0.678 0.358 1.073c-0.275 0.551-0.567 1.476-0.54 2.402 0.015 0.503 0.121 0.989 0.366 1.424 0.633-1.409 1.938-2.223 3.301-2.421 1.665-0.242 3.556 0.423 4.441 2.124 0.323-0.147 0.699-0.245 1.117-0.255 0.503-0.012 1.025 0.106 1.549 0.379 0.122-2.693 1.45-4.226 2.453-4.727 0.395-0.198 0.876-0.037 1.073 0.358zM13.532 6.198c0.387 1.496 0.279 2.85-0.046 4.042l7.923 0c0.757-2.356 0.038-3.721-0.785-4.245-0.903-0.575-2.368-0.443-3.444 1.035l-0.589 0.81-0.66-0.754c-0.784-0.896-1.411-1.064-1.8-1.055-0.231 0.005-0.436 0.075-0.599 0.166zM22.327 11.84l-20.504-0 0.254 1.314c0.368 1.162 0.992 2.433 1.96 3.567 1.611 1.886 4.213 3.44 8.336 3.44 4.121 0 6.604-1.552 8.076-3.416 0.804-1.018 1.321-2.149 1.629-3.212l0.249-1.693zM21.407 18.096c-1.816 2.092-4.696 3.664-9.034 3.664-4.434 0-7.434-1.641-9.363-3.784l2.343 12.104h13.702l0.209-1.252c0.019-0.115 0.062-0.219 0.122-0.31-0.404-0.768-0.643-1.501-0.749-1.924-0.198-0.792-0.192-2.078 0.227-3.195 0.214-0.57 0.552-1.142 1.073-1.574 0.291-0.241 0.625-0.429 1.003-0.55l0.468-3.179zM2.165 10.24h9.65c0.401-1.203 0.546-2.547 0.042-4.068-0.062-0.188-0.135-0.381-0.219-0.577-0.469-1.093-1.666-1.624-2.872-1.448-1.166 0.169-2.191 0.984-2.316 2.479l-0.069 0.825-0.822-0.097c-0.993-0.117-1.677-0.008-2.144 0.187-0.455 0.191-0.747 0.481-0.939 0.82-0.306 0.54-0.376 1.243-0.312 1.878zM28.058 22.655c-1.304-0.559-2.234 0.211-2.539 0.669l-0.444 0.666-0.666-0.444c-0.122-0.081-0.202-0.146-0.276-0.205-0.122-0.099-0.225-0.182-0.47-0.3-0.321-0.156-0.84-0.32-1.691-0.32-0.459 0-0.777 0.138-1.014 0.335-0.249 0.207-0.451 0.516-0.597 0.906-0.301 0.803-0.295 1.757-0.173 2.245 0.14 0.558 0.578 1.781 1.342 2.652 0.374 0.427 0.792 0.73 1.253 0.863 0.445 0.129 1.009 0.122 1.738-0.209l0.311-0.141 0.317 0.127c1.231 0.492 2.189 0.093 2.95-0.635 0.799-0.764 1.289-1.826 1.417-2.336 0.135-0.542 0.201-1.362 0.002-2.124-0.192-0.735-0.615-1.384-1.461-1.747z"></path>
</svg>
