<!-- Generated by IcoMoon.io -->
<svg version="1.1" xmlns="http://www.w3.org/2000/svg" width="28" height="32" viewBox="0 0 28 32">
<title>icecream</title>
<path fill="#ffa5ba" d="M14.955 4.934c-0.184 0.151-0.483 0.347-0.875 0.347-0.378 0-0.668-0.176-0.857-0.33-0.187-0.152-0.353-0.345-0.492-0.514-0.077-0.094-0.152-0.189-0.228-0.284-0.222-0.28-0.449-0.567-0.749-0.867-0.748-0.748-1.911-1.526-4.074-1.526-1.872 0-3.714 1.014-4.787 2.768-1.021 1.668-1.378 4.068-0.265 6.973 0.221 0.038 0.443 0.028 0.602-0.045 0.133-0.061 0.45-0.263 0.45-1.216 0-0.928 0.344-1.679 0.929-2.182 0.568-0.488 1.296-0.684 1.982-0.658 1.346 0.052 2.849 1.016 2.849 2.839v2.88c0 0.2 0.078 0.329 0.221 0.433 0.166 0.121 0.432 0.207 0.739 0.207s0.573-0.086 0.739-0.207c0.143-0.104 0.221-0.232 0.221-0.433v-2.88c0-0.822 0.368-1.464 0.938-1.868 0.539-0.382 1.206-0.517 1.816-0.492 0.612 0.026 1.252 0.216 1.761 0.59 0.524 0.386 0.926 0.988 0.926 1.769v2.88c0 0.17 0.068 0.297 0.244 0.414 0.199 0.133 0.515 0.226 0.876 0.226s0.677-0.093 0.876-0.226c0.176-0.117 0.244-0.245 0.244-0.414v-2.88c0-1.708 1.217-2.78 2.524-2.839 0.646-0.029 1.313 0.192 1.816 0.703 0.506 0.513 0.78 1.251 0.78 2.136 0 0.465 0.098 0.735 0.196 0.89 0.094 0.149 0.221 0.244 0.384 0.307 0.276 0.105 0.638 0.105 0.968 0.045 1.22-2.844 0.775-5.152-0.339-6.794-1.187-1.75-3.173-2.803-4.946-2.929-1.956-0.14-3.1 0.61-3.897 1.408-0.316 0.316-0.563 0.623-0.804 0.922-0.084 0.104-0.167 0.207-0.251 0.308-0.151 0.181-0.325 0.381-0.515 0.537zM24.862 13.099c-0.231-0.028-0.465-0.081-0.692-0.167-0.445-0.17-0.865-0.47-1.167-0.947-0.298-0.471-0.443-1.057-0.443-1.744 0-0.554-0.166-0.857-0.32-1.014-0.157-0.159-0.37-0.238-0.604-0.227-0.453 0.021-0.996 0.389-0.996 1.241v2.88c0 0.79-0.412 1.383-0.956 1.746-0.521 0.347-1.165 0.494-1.764 0.494s-1.243-0.147-1.764-0.494c-0.544-0.363-0.956-0.955-0.956-1.746v-2.88c0-0.179-0.078-0.336-0.274-0.481-0.211-0.155-0.531-0.265-0.879-0.28-0.35-0.015-0.643 0.070-0.824 0.199-0.151 0.107-0.262 0.264-0.262 0.562v2.88c0 0.759-0.362 1.351-0.88 1.727-0.494 0.359-1.108 0.513-1.681 0.513s-1.187-0.154-1.681-0.513c-0.517-0.376-0.879-0.968-0.879-1.727v-2.88c0-0.736-0.577-1.212-1.311-1.241-0.354-0.014-0.666 0.091-0.878 0.272-0.195 0.168-0.371 0.456-0.371 0.968 0 1.351-0.5 2.269-1.387 2.672-0.177 0.080-0.357 0.134-0.536 0.167 0.159 0.295 0.332 0.593 0.522 0.896 2.824 4.518 6.285 6.79 8.588 7.744 0.655 0.271 1.203 0.43 1.605 0.507 0.38-0.082 0.924-0.258 1.596-0.565 2.163-0.99 5.486-3.271 8.64-7.724 0.201-0.284 0.386-0.564 0.555-0.839zM15.394 2.034c1.042-1.042 2.618-2.053 5.143-1.872 2.258 0.161 4.691 1.469 6.156 3.627 1.494 2.202 1.943 5.231 0.312 8.711-0.361 0.769-0.821 1.558-1.392 2.363-3.104 4.383-6.411 6.826-8.813 8.030v8.948h-5.44v-8.858c-2.557-1.174-6.014-3.639-8.838-8.158-0.501-0.801-0.908-1.588-1.229-2.355-1.451-3.47-1.13-6.545 0.236-8.776 1.354-2.213 3.704-3.532 6.152-3.532 2.637 0 4.194 0.983 5.206 1.994 0.373 0.373 0.68 0.761 0.909 1.051 0.064 0.081 0.123 0.155 0.174 0.218 0.043 0.052 0.080 0.096 0.113 0.133 0.044-0.049 0.097-0.109 0.158-0.183 0.059-0.071 0.125-0.154 0.198-0.244 0.249-0.309 0.574-0.713 0.956-1.096zM12.96 23.596v6.644h2.24v-6.671c-0.367 0.123-0.697 0.209-0.981 0.259l-0.132 0.023-0.132-0.021c-0.292-0.046-0.627-0.124-0.995-0.235z"></path>
</svg>
