<!-- Generated by IcoMoon.io -->
<svg version="1.1" xmlns="http://www.w3.org/2000/svg" width="51" height="32" viewBox="0 0 51 32">
<title>arrow</title>
<path fill="#d41443" d="M26.253 1.263c1.070-1.407 3.078-1.679 4.484-0.609l16.825 12.8c0.796 0.605 1.262 1.547 1.262 2.547s-0.467 1.942-1.262 2.547l-16.825 12.8c-1.407 1.070-3.414 0.797-4.484-0.609s-0.797-3.414 0.609-4.484l13.478-10.253-13.477-10.253c-1.407-1.070-1.679-3.078-0.609-4.484z"></path>
<path fill="#d41443" d="M1.6 16c0-1.767 1.433-3.2 3.2-3.2h40c1.767 0 3.2 1.433 3.2 3.2s-1.433 3.2-3.2 3.2h-40c-1.767 0-3.2-1.433-3.2-3.2z"></path>
</svg>
