<svg version="1.1" id="Layer_1" xmlns="http://www.w3.org/2000/svg" x="0" y="0" viewBox="0 0 1428.88 305.18" style="enable-background:new 0 0 1428.88 305.18" xml:space="preserve"><style>.st0{fill:#feb7c8}</style><path class="st0" d="M116.44 64.4c2.02-1.12 4.03-1.47 6.24-.36.79.4 1.83.28 2.76.4.46.34.95.67 1.39 1.04 5.94 4.93 6.19 8.12-.32 12.95-3 2.23-6.56 3.06-10.07 4.02h-3c-.33-.01-.67-.04-1-.02-5.37.31-8.9-4.86-6-10.05.94-1.68 2-3.3 3.01-4.95 1.66-1 3.33-1.99 4.99-2.99.67-.02 1.34-.03 2-.04zM74.95 146.08c1.27-.71 2.54-.93 3.93-.23.5.25 1.15.18 1.74.25.29.22.6.42.88.65 3.74 3.11 3.9 5.11-.2 8.15-1.89 1.4-4.13 1.93-6.34 2.53h-1.89c-.21 0-.42-.02-.63-.01-3.38.19-5.6-3.06-3.78-6.33.59-1.06 1.26-2.08 1.9-3.12 1.05-.63 2.1-1.26 3.14-1.88.42 0 .84-.01 1.25-.01z"/><path d="M1303.49 195.42c-2.04-.05-4.23.56-4.72-1.48-.52-2.18-.78-4.75-.13-6.83 1.64-5.19 8.92-6.36 12.52-2.26 1.81 2.06 1.69 5.47-.2 7.55-2.13 2.37-4.71 3.47-7.47 3.02z" style="fill:#feb8c8"/></svg>