<svg width="44" height="50" fill="none" xmlns="http://www.w3.org/2000/svg"><path fill-rule="evenodd" clip-rule="evenodd" d="M23.367 7.709c-.287.236-.754.541-1.367.541-.591 0-1.044-.275-1.34-.515-.292-.237-.552-.538-.768-.803-.12-.147-.238-.295-.356-.444-.346-.437-.7-.885-1.17-1.354C17.197 3.964 15.38 2.75 12 2.75c-2.926 0-5.803 1.584-7.48 4.325-1.595 2.606-2.153 6.355-.414 10.894.346.06.692.044.941-.07.209-.094.703-.41.703-1.899 0-1.45.537-2.624 1.451-3.41.888-.762 2.025-1.068 3.097-1.027 2.103.081 4.452 1.587 4.452 4.437v4.5c0 .313.121.514.345.677.26.189.674.323 1.155.323.48 0 .896-.134 1.155-.323a.768.768 0 0 0 .345-.677V16c0-1.285.575-2.288 1.465-2.918.842-.597 1.885-.808 2.837-.768.956.04 1.956.336 2.752.922.818.602 1.446 1.543 1.446 2.764v4.5c0 .265.106.465.38.648.312.207.805.352 1.37.352.565 0 1.058-.145 1.37-.352.273-.183.38-.383.38-.648V16c0-2.67 1.902-4.343 3.943-4.436 1.01-.046 2.052.3 2.838 1.098.79.802 1.219 1.954 1.219 3.338 0 .726.153 1.148.306 1.39.147.232.345.382.6.48.431.164.997.164 1.513.07 1.907-4.444 1.21-8.05-.53-10.616-1.855-2.734-4.958-4.38-7.728-4.577-3.056-.218-4.843.953-6.09 2.2-.493.493-.88.973-1.256 1.44-.131.163-.26.323-.393.482-.235.283-.508.595-.805.84Zm15.48 12.758a4.534 4.534 0 0 1-1.081-.261 3.665 3.665 0 0 1-1.824-1.48c-.465-.736-.692-1.652-.692-2.726 0-.866-.259-1.34-.5-1.584a1.219 1.219 0 0 0-.943-.355c-.709.033-1.557.608-1.557 1.94v4.5c0 1.234-.644 2.16-1.494 2.727-.814.542-1.82.772-2.756.772-.935 0-1.942-.23-2.756-.772-.85-.567-1.494-1.493-1.494-2.728V16c0-.28-.122-.525-.428-.751-.33-.243-.83-.415-1.374-.438-.548-.022-1.005.11-1.288.31-.235.167-.41.414-.41.88v4.5c0 1.186-.566 2.11-1.374 2.697-.772.562-1.732.802-2.626.802-.894 0-1.854-.24-2.626-.802A3.263 3.263 0 0 1 12.25 20.5V16c0-1.15-.9-1.894-2.048-1.938-.553-.022-1.041.141-1.372.425-.305.262-.58.713-.58 1.513 0 2.111-.782 3.545-2.168 4.175-.276.126-.557.21-.837.262.248.46.52.927.815 1.4 4.413 7.06 9.82 10.61 13.418 12.1 1.023.424 1.88.672 2.509.792.594-.128 1.443-.403 2.493-.883 3.379-1.547 8.572-5.111 13.5-12.068.314-.444.603-.881.867-1.311ZM24.054 3.179c1.628-1.629 4.09-3.207 8.035-2.926 3.528.252 7.33 2.295 9.619 5.667 2.334 3.44 3.036 8.174.487 13.61a24.138 24.138 0 0 1-2.175 3.693c-4.85 6.848-10.018 10.665-13.77 12.546V49.75h-8.5V35.91c-3.996-1.834-9.397-5.686-13.81-12.747a25.59 25.59 0 0 1-1.92-3.68C-.249 14.06.253 9.255 2.387 5.77 4.504 2.312 8.175.25 12 .25c4.12 0 6.553 1.535 8.134 3.116.583.583 1.062 1.19 1.42 1.642.101.127.192.242.273.341.067.082.125.15.176.208.07-.076.15-.17.247-.285l.31-.381c.388-.483.895-1.114 1.494-1.712Zm-3.804 33.69V47.25h3.5V36.826c-.574.193-1.09.327-1.533.405l-.206.036-.206-.032c-.456-.072-.98-.193-1.555-.367Z" fill="#FFA5BA"/></svg>