<!-- Generated by IcoMoon.io -->
<svg version="1.1" xmlns="http://www.w3.org/2000/svg" width="32" height="32" viewBox="0 0 32 32">
<title>logo</title>
<path fill="#ff8a8a" d="M26.645 16.129c-0.387-0.387-0.839-0.645-1.355-0.774v-2.71c0-1.548-0.516-2.968-1.484-4.194-1.677-2.129-4.516-3.548-7.871-3.548s-6.194 1.419-7.871 3.548c-0.903 1.226-1.484 2.645-1.484 4.194v2.71c-0.516 0.129-0.968 0.387-1.355 0.774-0.581 0.516-0.839 1.29-0.839 2s0.258 1.419 0.839 2c0.387 0.387 0.839 0.645 1.355 0.774v4.323c0 1.226 0.387 2.323 1.29 3.097 0.71 0.581 1.548 0.903 2.581 1.032v2.645h1.935v-2.581h7.097v2.581h1.935v-2.645c1.161-0.129 2.065-0.581 2.71-1.226 0.839-0.839 1.161-1.935 1.161-2.903v-4.323c0.516-0.129 0.968-0.387 1.355-0.774 0.581-0.516 0.839-1.29 0.839-2s-0.258-1.419-0.839-2zM16 6.839c2.452 0 4.516 0.968 5.806 2.258-0.387 0.452-0.839 0.839-1.419 1.226-0.903 0.581-2.258 1.032-4.387 1.032s-3.29-0.387-4.129-0.903c-0.645-0.387-1.097-0.839-1.677-1.419 1.355-1.29 3.355-2.194 5.806-2.194zM8.516 12.645c0-0.71 0.194-1.355 0.452-2 0.516 0.516 1.097 1.097 1.806 1.484 1.226 0.71 2.774 1.161 5.161 1.161s4.129-0.516 5.355-1.29c0.645-0.387 1.161-0.839 1.613-1.29 0.323 0.645 0.452 1.29 0.452 1.935v2.581h-14.839v-2.581zM23.355 25.226c0 0.645-0.194 1.161-0.581 1.548s-1.032 0.71-2.323 0.71h-9.032c-1.161 0-1.871-0.258-2.258-0.581s-0.645-0.839-0.645-1.677v-4.194h7.419v2.258c0 0.903 0.387 1.613 0.968 2.065s1.29 0.645 1.935 0.645 1.355-0.194 1.935-0.645c0.581-0.516 0.968-1.161 0.968-2.065v-2.258h1.613v4.194zM25.29 18.774c-0.194 0.194-0.452 0.323-0.968 0.323h-4.516v4.194c0 0.258-0.129 0.387-0.258 0.516s-0.452 0.194-0.71 0.194c-0.258 0-0.516-0.065-0.71-0.194s-0.258-0.258-0.258-0.516v-4.194h-10.323c-0.516 0-0.839-0.194-0.968-0.323-0.194-0.194-0.258-0.387-0.258-0.645s0.065-0.452 0.258-0.645 0.452-0.323 0.968-0.323h16.774c0.516 0 0.839 0.194 0.968 0.323 0.194 0.194 0.258 0.387 0.258 0.645s-0.065 0.452-0.258 0.645z"></path>
</svg>
