<svg version="1.1" id="Layer_1" xmlns="http://www.w3.org/2000/svg" x="0" y="0" viewBox="0 0 32 50" style="enable-background:new 0 0 32 50" xml:space="preserve"><style>.st0{fill:#ffa5ba}</style><path class="st0" d="m0 20.8.1 1.4c.1.6.2 1.3.3 2.1l4.3 25.6h22.1l4.9-29H0zm2.9 2.4h25.9c-.5 1.8-1.6 4.1-3.3 6.1-2.2 2.5-5.4 4.4-10.1 4.4-4.7 0-7.8-2-9.7-4.4-1.5-1.8-2.3-3.9-2.7-5.7l-.1-.4zm21.9 24H6.9L4.3 31.6c2.4 2.7 6 4.7 11.1 4.7 5.5 0 9.4-2.4 12-5.3l.3-.3-2.9 16.5zM3.4 12.1c1.7 1.3 4.2.9 6.2-.9.4.2.8.4 1.1.5.3.1.7.2 1 .3v2c0 2.8 2.1 4.4 4.2 4.4 1 0 2.1-.3 3-1.1.9-.8 1.3-2 1.3-3.4v-2c.6-.2 1.3-.4 2-.9 1.8 1.9 4.4 2.3 6.1 1.1 1.1-.7 1.6-1.9 1.5-3.4-.2-.9-.8-2.1-1.8-3.3.4-.6.6-1.1.8-1.7.3-.8.4-1.8.3-2.5l-.2-1H2.6v1.2c0 1.6.4 2.9.8 3.8C2.5 6.5 2 7.7 1.9 8.8c-.1 1.3.5 2.5 1.5 3.3zm2.5-7.3c-.1-.2-.5-1-.7-2.1h21.3c0 .1 0 .1-.1.2-.2.6-.5 1.2-1 1.6l-.9.9.9.9c1.3 1.3 1.7 2.2 1.8 2.8.1.5-.1.8-.4 1-.6.4-2.2.4-3.5-1.4l-.7-1.1-1.1.8c-1.4 1.1-2.6 1.2-2.7 1.2h-1.2V14c0 .8-.3 1.3-.5 1.5-.3.3-.7.4-1.2.4-.9 0-1.8-.7-1.8-1.9v-4l-1-.2c-.4-.1-1-.2-1.6-.5-.6-.2-1.1-.5-1.3-.7l-1-1-.8 1.1c-1.5 1.9-3 1.7-3.5 1.3-.3-.1-.5-.5-.5-1.1 0-.6.4-1.5 1.4-2.6l.6-.7-.5-.8z"/></svg>