<!-- Generated by IcoMoon.io -->
<svg version="1.1" xmlns="http://www.w3.org/2000/svg" width="20" height="32" viewBox="0 0 20 32">
<title>milk</title>
<path fill="#ffa5ba" d="M0 13.312l0.064 0.896c0.064 0.384 0.128 0.832 0.192 1.344l2.752 16.384h14.144l3.136-18.56h-20.288zM1.856 14.848h16.576c-0.32 1.152-1.024 2.624-2.112 3.904-1.408 1.6-3.456 2.816-6.464 2.816s-4.992-1.28-6.208-2.816c-0.96-1.152-1.472-2.496-1.728-3.648l-0.064-0.256zM15.872 30.208h-11.456l-1.664-9.984c1.536 1.728 3.84 3.008 7.104 3.008 3.52 0 6.016-1.536 7.68-3.392 0.064-0.064 0.128-0.128 0.192-0.192l-1.856 10.56z"></path>
<path fill="#ffa5ba" d="M2.176 7.744c1.088 0.832 2.688 0.576 3.968-0.576 0.256 0.128 0.512 0.256 0.704 0.32s0.448 0.128 0.64 0.192v1.28c0 1.792 1.344 2.816 2.688 2.816 0.64 0 1.344-0.192 1.92-0.704s0.832-1.28 0.832-2.176v-1.28c0.384-0.128 0.832-0.256 1.28-0.576 1.152 1.216 2.816 1.472 3.904 0.704 0.704-0.448 1.024-1.216 0.96-2.176-0.128-0.576-0.512-1.344-1.152-2.112 0.256-0.384 0.384-0.704 0.512-1.088 0.192-0.512 0.256-1.152 0.192-1.6l-0.128-0.64h-16.832v0.768c0 1.024 0.256 1.856 0.512 2.432-0.576 0.832-0.896 1.6-0.96 2.304-0.064 0.832 0.32 1.6 0.96 2.112zM3.776 3.072c-0.064-0.128-0.32-0.64-0.448-1.344h13.632c0 0.064 0 0.064-0.064 0.128-0.128 0.384-0.32 0.768-0.64 1.024l-0.576 0.576 0.576 0.576c0.832 0.832 1.088 1.408 1.152 1.792 0.064 0.32-0.064 0.512-0.256 0.64-0.384 0.256-1.408 0.256-2.24-0.896l-0.448-0.704-0.704 0.512c-0.896 0.704-1.664 0.768-1.728 0.768h-0.768v2.816c0 0.512-0.192 0.832-0.32 0.96-0.192 0.192-0.448 0.256-0.768 0.256-0.576 0-1.152-0.448-1.152-1.216v-2.56l-0.64-0.128c-0.256-0.064-0.64-0.128-1.024-0.32-0.384-0.128-0.704-0.32-0.832-0.448l-0.64-0.64-0.512 0.704c-0.96 1.216-1.92 1.088-2.24 0.832-0.192-0.064-0.32-0.32-0.32-0.704s0.256-0.96 0.896-1.664l0.384-0.448-0.32-0.512z"></path>
</svg>
