<svg aria-hidden="true" style="position:absolute;width:0;height:0;overflow:hidden" xmlns="http://www.w3.org/2000/svg"><defs><symbol id="icon-logo" viewBox="0 0 32 32"><path d="M26.645 16.129a2.872 2.872 0 0 0-1.355-.774v-2.71c0-1.548-.516-2.968-1.484-4.194-1.677-2.129-4.516-3.548-7.871-3.548S9.741 6.322 8.064 8.451c-.903 1.226-1.484 2.645-1.484 4.194v2.71a2.872 2.872 0 0 0-1.355.774c-.581.516-.839 1.29-.839 2s.258 1.419.839 2c.387.387.839.645 1.355.774v4.323c0 1.226.387 2.323 1.29 3.097.71.581 1.548.903 2.581 1.032V32h1.935v-2.581h7.097V32h1.935v-2.645c1.161-.129 2.065-.581 2.71-1.226.839-.839 1.161-1.935 1.161-2.903v-4.323a2.872 2.872 0 0 0 1.355-.774c.581-.516.839-1.29.839-2s-.258-1.419-.839-2zM16 6.839c2.452 0 4.516.968 5.806 2.258-.387.452-.839.839-1.419 1.226-.903.581-2.258 1.032-4.387 1.032s-3.29-.387-4.129-.903c-.645-.387-1.097-.839-1.677-1.419 1.355-1.29 3.355-2.194 5.806-2.194zm-7.484 5.806c0-.71.194-1.355.452-2 .516.516 1.097 1.097 1.806 1.484 1.226.71 2.774 1.161 5.161 1.161s4.129-.516 5.355-1.29a8.357 8.357 0 0 0 1.613-1.29 4.24 4.24 0 0 1 .452 1.935v2.581H8.516v-2.581zm14.839 12.581c0 .645-.194 1.161-.581 1.548s-1.032.71-2.323.71h-9.032c-1.161 0-1.871-.258-2.258-.581s-.645-.839-.645-1.677v-4.194h7.419v2.258c0 .903.387 1.613.968 2.065s1.29.645 1.935.645 1.355-.194 1.935-.645c.581-.516.968-1.161.968-2.065v-2.258h1.613v4.194zm1.935-6.452c-.194.194-.452.323-.968.323h-4.516v4.194c0 .258-.129.387-.258.516s-.452.194-.71.194c-.258 0-.516-.065-.71-.194s-.258-.258-.258-.516v-4.194H7.547c-.516 0-.839-.194-.968-.323-.194-.194-.258-.387-.258-.645s.065-.452.258-.645.452-.323.968-.323h16.774c.516 0 .839.194.968.323.194.194.258.387.258.645s-.065.452-.258.645z"/></symbol><symbol id="icon-milk" viewBox="0 0 20 32"><path d="m0 13.312.064.896c.064.384.128.832.192 1.344l2.752 16.384h14.144l3.136-18.56H0zm1.856 1.536h16.576c-.32 1.152-1.024 2.624-2.112 3.904-1.408 1.6-3.456 2.816-6.464 2.816s-4.992-1.28-6.208-2.816c-.96-1.152-1.472-2.496-1.728-3.648l-.064-.256zm14.016 15.36H4.416l-1.664-9.984c1.536 1.728 3.84 3.008 7.104 3.008 3.52 0 6.016-1.536 7.68-3.392l.192-.192-1.856 10.56zM2.176 7.744c1.088.832 2.688.576 3.968-.576.256.128.512.256.704.32s.448.128.64.192v1.28c0 1.792 1.344 2.816 2.688 2.816.64 0 1.344-.192 1.92-.704s.832-1.28.832-2.176v-1.28c.384-.128.832-.256 1.28-.576 1.152 1.216 2.816 1.472 3.904.704.704-.448 1.024-1.216.96-2.176-.128-.576-.512-1.344-1.152-2.112.256-.384.384-.704.512-1.088.192-.512.256-1.152.192-1.6l-.128-.64H1.664v.768a5.99 5.99 0 0 0 .512 2.432c-.576.832-.896 1.6-.96 2.304-.064.832.32 1.6.96 2.112zm1.6-4.672c-.064-.128-.32-.64-.448-1.344H16.96c0 .064 0 .064-.064.128-.128.384-.32.768-.64 1.024l-.576.576.576.576c.832.832 1.088 1.408 1.152 1.792.064.32-.064.512-.256.64-.384.256-1.408.256-2.24-.896l-.448-.704-.704.512c-.896.704-1.664.768-1.728.768h-.768V8.96c0 .512-.192.832-.32.96-.192.192-.448.256-.768.256-.576 0-1.152-.448-1.152-1.216V6.4l-.64-.128c-.256-.064-.64-.128-1.024-.32-.384-.128-.704-.32-.832-.448l-.64-.64-.512.704c-.96 1.216-1.92 1.088-2.24.832-.192-.064-.32-.32-.32-.704s.256-.96.896-1.664l.384-.448-.32-.512z"/></symbol><symbol id="icon-icecream" viewBox="0 0 28 32"><path d="M14.955 4.934c-.184.151-.483.347-.875.347-.378 0-.668-.176-.857-.33a3.642 3.642 0 0 1-.492-.514c-.077-.094-.152-.189-.228-.284-.222-.28-.449-.567-.749-.867-.748-.748-1.911-1.526-4.074-1.526-1.872 0-3.714 1.014-4.787 2.768-1.021 1.668-1.378 4.068-.265 6.973.221.038.443.028.602-.045.133-.061.45-.263.45-1.216 0-.928.344-1.679.929-2.182.568-.488 1.296-.684 1.982-.658 1.346.052 2.849 1.016 2.849 2.839v2.88c0 .2.078.329.221.433.166.121.432.207.739.207s.573-.086.739-.207a.491.491 0 0 0 .221-.433v-2.88c0-.822.368-1.464.938-1.868.539-.382 1.206-.517 1.816-.492.612.026 1.252.216 1.761.59.524.386.926.988.926 1.769v2.88c0 .17.068.297.244.414.199.133.515.226.876.226s.677-.093.876-.226c.176-.117.244-.245.244-.414v-2.88c0-1.708 1.217-2.78 2.524-2.839a2.38 2.38 0 0 1 1.816.703c.506.513.78 1.251.78 2.136 0 .465.098.735.196.89a.751.751 0 0 0 .384.307c.276.105.638.105.968.045 1.22-2.844.775-5.152-.339-6.794-1.187-1.75-3.173-2.803-4.946-2.929-1.956-.14-3.1.61-3.897 1.408-.316.316-.563.623-.804.922-.084.104-.167.207-.251.308a4.068 4.068 0 0 1-.515.537zm9.907 8.165a2.957 2.957 0 0 1-.692-.167 2.35 2.35 0 0 1-1.167-.947c-.298-.471-.443-1.057-.443-1.744 0-.554-.166-.857-.32-1.014A.78.78 0 0 0 21.636 9c-.453.021-.996.389-.996 1.241v2.88c0 .79-.412 1.383-.956 1.746-.521.347-1.165.494-1.764.494s-1.243-.147-1.764-.494c-.544-.363-.956-.955-.956-1.746v-2.88c0-.179-.078-.336-.274-.481-.211-.155-.531-.265-.879-.28-.35-.015-.643.07-.824.199-.151.107-.262.264-.262.562v2.88c0 .759-.362 1.351-.88 1.727-.494.359-1.108.513-1.681.513s-1.187-.154-1.681-.513a2.089 2.089 0 0 1-.879-1.727v-2.88c0-.736-.577-1.212-1.311-1.241-.354-.014-.666.091-.878.272-.195.168-.371.456-.371.968 0 1.351-.5 2.269-1.387 2.672-.177.08-.357.134-.536.167.159.295.332.593.522.896 2.824 4.518 6.285 6.79 8.588 7.744.655.271 1.203.43 1.605.507.38-.082.924-.258 1.596-.565 2.163-.99 5.486-3.271 8.64-7.724.201-.284.386-.564.555-.839zM15.394 2.034C16.436.992 18.012-.019 20.537.162c2.258.161 4.691 1.469 6.156 3.627 1.494 2.202 1.943 5.231.312 8.711a15.422 15.422 0 0 1-1.392 2.363c-3.104 4.383-6.411 6.826-8.813 8.03v8.948h-5.44v-8.858c-2.557-1.174-6.014-3.639-8.838-8.158a16.362 16.362 0 0 1-1.229-2.355C-.158 9 .163 5.925 1.529 3.694 2.883 1.481 5.233.162 7.681.162c2.637 0 4.194.983 5.206 1.994.373.373.68.761.909 1.051l.174.218c.043.052.08.096.113.133.044-.049.097-.109.158-.183.059-.071.125-.154.198-.244.249-.309.574-.713.956-1.096zM12.96 23.596v6.644h2.24v-6.671a6.92 6.92 0 0 1-.981.259l-.132.023-.132-.021a7.585 7.585 0 0 1-.995-.235z"/></symbol><symbol id="icon-fruit" viewBox="0 0 31 32"><path d="M19.169.442a.8.8 0 0 1-.358 1.073c-.399.2-1.44 1.146-1.566 3.263 1.355-.887 2.967-.942 4.238-.133 1.546.984 2.258 3.018 1.59 5.595h.98v.8c0 .807-.118 1.789-.407 2.829l-1.07 7.275c.626.051 1.127.18 1.534.345.057-.584.165-1.124.357-1.618.352-.906.962-1.597 1.894-2.156a.8.8 0 0 1 .824 1.372c-.668.401-1.018.83-1.226 1.364-.08.205-.142.434-.188.693.774-.338 1.769-.451 2.918.041 1.394.598 2.091 1.709 2.379 2.814.281 1.078.187 2.178.002 2.916-.192.77-.822 2.109-1.863 3.104-1.02.976-2.508 1.673-4.332 1.08-.913.349-1.764.382-2.534.16-.674-.195-1.234-.57-1.691-1.009l-.238 1.43H4.034L.524 13.545a10.83 10.83 0 0 1-.468-2.453l-.055-.852h.56c-.061-.838.044-1.816.525-2.666a3.462 3.462 0 0 1 1.713-1.508c.318-.133.666-.23 1.046-.29-.391-.693-.554-1.449-.575-2.169-.037-1.249.343-2.436.708-3.165a.8.8 0 0 1 1.431.715c-.275.551-.567 1.476-.54 2.402.015.503.121.989.366 1.424.633-1.409 1.938-2.223 3.301-2.421 1.665-.242 3.556.423 4.441 2.124a2.853 2.853 0 0 1 1.117-.255 3.164 3.164 0 0 1 1.549.379c.122-2.693 1.45-4.226 2.453-4.727a.8.8 0 0 1 1.073.358zm-5.637 5.756c.387 1.496.279 2.85-.046 4.042h7.923c.757-2.356.038-3.721-.785-4.245-.903-.575-2.368-.443-3.444 1.035l-.589.81-.66-.754c-.784-.896-1.411-1.064-1.8-1.055a1.29 1.29 0 0 0-.599.166zm8.795 5.642H1.823l.254 1.314a10.315 10.315 0 0 0 1.96 3.567c1.611 1.886 4.213 3.44 8.336 3.44 4.121 0 6.604-1.552 8.076-3.416a9.417 9.417 0 0 0 1.629-3.212l.249-1.693zm-.92 6.256c-1.816 2.092-4.696 3.664-9.034 3.664-4.434 0-7.434-1.641-9.363-3.784L5.353 30.08h13.702l.209-1.252a.797.797 0 0 1 .122-.31 9.118 9.118 0 0 1-.749-1.924c-.198-.792-.192-2.078.227-3.195.214-.57.552-1.142 1.073-1.574a2.993 2.993 0 0 1 1.003-.55l.468-3.179zM2.165 10.24h9.65c.401-1.203.546-2.547.042-4.068a7.162 7.162 0 0 0-.219-.577c-.469-1.093-1.666-1.624-2.872-1.448-1.166.169-2.191.984-2.316 2.479l-.069.825-.822-.097c-.993-.117-1.677-.008-2.144.187a1.868 1.868 0 0 0-.939.82c-.306.54-.376 1.243-.312 1.878zm25.893 12.415a2.03 2.03 0 0 0-2.539.669l-.444.666-.666-.444c-.122-.081-.202-.146-.276-.205a2.027 2.027 0 0 0-.47-.3c-.321-.156-.84-.32-1.691-.32-.459 0-.777.138-1.014.335-.249.207-.451.516-.597.906-.301.803-.295 1.757-.173 2.245.14.558.578 1.781 1.342 2.652.374.427.792.73 1.253.863.445.129 1.009.122 1.738-.209l.311-.141.317.127c1.231.492 2.189.093 2.95-.635.799-.764 1.289-1.826 1.417-2.336.135-.542.201-1.362.002-2.124-.192-.735-.615-1.384-1.461-1.747z"/></symbol><symbol id="icon-menu" viewBox="0 0 46 32"><path d="M45.714 3.429H0V1.143h45.714v2.286zM45.714 17.143H0v-2.286h45.714v2.286zM45.714 30.857H0v-2.286h45.714v2.286z"/></symbol><symbol id="icon-close" viewBox="0 0 32 32"><path d="m28.761 30.693-26.963-28 1.441-1.387 26.963 28-1.441 1.387z"/><path d="m30.694 3.239-28 26.963-1.387-1.441 28-26.963 1.387 1.441z"/></symbol><symbol id="icon-arrow" viewBox="0 0 51 32"><path d="M26.253 1.263a3.2 3.2 0 0 1 4.484-.609l16.825 12.8a3.2 3.2 0 0 1 0 5.094l-16.825 12.8a3.2 3.2 0 0 1-3.875-5.093L40.34 16.002 26.863 5.749a3.2 3.2 0 0 1-.609-4.484z"/><path d="M1.6 16a3.2 3.2 0 0 1 3.2-3.2h40a3.2 3.2 0 0 1 0 6.4h-40A3.2 3.2 0 0 1 1.6 16z"/></symbol><symbol id="icon-angle" viewBox="0 0 26 32"><path d="M.995 1.263A3.2 3.2 0 0 1 5.479.654l16.825 12.8a3.2 3.2 0 0 1 0 5.094l-16.825 12.8a3.2 3.2 0 0 1-3.875-5.093l13.478-10.253L1.604 5.749a3.2 3.2 0 0 1-.609-4.484z"/></symbol><symbol id="icon-facebook" viewBox="0 0 16 32"><path d="M14.266 15.97H10.09v15.39H3.763V15.97H.754v-5.409h3.009v-3.5c0-2.503 1.182-6.422 6.384-6.422l4.687.02v5.25h-3.401c-.558 0-1.342.28-1.342 1.474v3.183h4.729l-.553 5.403z"/></symbol><symbol id="icon-telegram" viewBox="0 0 40 32"><path d="m16.205 20.751-.635 8.339c.909 0 1.302-.364 1.774-.802l4.261-3.801 8.829 6.035c1.619.842 2.76.399 3.197-1.39l5.797-25.346c.514-2.234-.866-3.108-2.443-2.56L2.92 13.398c-2.325.842-2.29 2.052-.395 2.6l8.709 2.528L31.463 6.712c.952-.588 1.818-.263 1.106.326L16.205 20.751z"/></symbol><symbol id="icon-github" viewBox="0 0 32 32"><path d="M16 .941C7.729.941.941 7.729.941 16c0 7.058 4.953 13.47 11.529 15.059v-4.982c-.652.143-1.251.147-1.915-.049-.89-.263-1.613-.856-2.15-1.76-.342-.577-.949-1.203-1.581-1.157l-.155-1.758c1.368-.117 2.551.833 3.254 2.013.312.525.671.832 1.132.969.446.131.924.068 1.481-.129.14-1.116.651-1.534 1.037-2.122v-.001c-3.922-.585-5.486-2.666-6.106-4.308-.822-2.181-.381-4.905 1.073-6.627.028-.034.079-.121.06-.183-.667-2.014.146-3.679.176-3.856.769.228.894-.229 3.342 1.258l.423.254c.177.105.121.045.298.032a12.77 12.77 0 0 1 3.16-.445 12.84 12.84 0 0 1 3.204.456l.137.014c-.012-.002.037-.009.12-.058 3.057-1.852 2.947-1.247 3.767-1.513.03.177.831 1.87.172 3.858-.089.274 2.65 2.782 1.132 6.809-.62 1.643-2.184 3.724-6.106 4.309v.001c.503.766 1.107 1.174 1.104 2.755v6.219c6.577-1.589 11.529-8.001 11.529-15.059C31.058 7.728 24.271.94 15.999.94z"/></symbol><symbol id="icon-home" viewBox="0 0 35 32"><path d="M32.64 15.401a1.541 1.541 0 0 0-.129-2.225L17.739.426c-.671-.578-1.745-.566-2.402.027L.515 13.856a1.532 1.532 0 0 0-.071 2.222l.372.382c.617.633 1.613.708 2.224.168l1.108-.979v14.326c0 .879.722 1.591 1.612 1.591h5.778c.89 0 1.612-.712 1.612-1.591V19.952h7.37v10.023c-.013.878.624 1.59 1.515 1.59h6.123c.89 0 1.613-.711 1.613-1.59V15.851l.683.592c.377.328 1.168.065 1.767-.586l.42-.455z"/></symbol><symbol id="icon-quote" viewBox="0 0 43 32"><path d="M32.014 0c1.929 0 3.75.52 5.464 1.561s3.107 2.537 4.179 4.488C42.686 8 43.2 10.298 43.2 12.943s-.643 5.225-1.929 7.74c-.429.911-1.2 2.081-2.314 3.512a63.368 63.368 0 0 1-3.214 3.707L31.693 32 28.8 27.187a22.03 22.03 0 0 0 5.336-4.683c1.543-1.821 2.314-3.491 2.314-5.008 0-.78-.171-1.409-.514-1.886a8.359 8.359 0 0 1-5.014 1.626c-1.329 0-2.593-.412-3.793-1.236a8.555 8.555 0 0 1-2.957-3.122c-.771-1.258-1.157-2.558-1.157-3.902 0-1.518.45-2.97 1.35-4.358a10.222 10.222 0 0 1 3.407-3.382C29.143.412 30.558 0 32.015 0zM8.936 0c1.929 0 3.75.52 5.464 1.561s3.107 2.537 4.179 4.488c1.029 1.951 1.543 4.249 1.543 6.894 0 1.864-.236 3.534-.707 5.008-.471 1.518-1.286 3.1-2.443 4.748-1.114 1.561-2.164 2.862-3.15 3.902-.986 1.084-2.7 2.884-5.143 5.398l-2.893-4.813a22.03 22.03 0 0 0 5.336-4.683c1.543-1.821 2.314-3.491 2.314-5.008 0-.78-.171-1.409-.514-1.886a8.359 8.359 0 0 1-5.014 1.626c-1.329 0-2.593-.412-3.793-1.236a8.555 8.555 0 0 1-2.957-3.122C.387 11.619.001 10.319.001 8.975c0-1.518.429-2.97 1.286-4.358S3.28 2.102 4.694 1.235C6.065.411 7.48-.001 8.937-.001z"/></symbol><symbol id="icon-circle" viewBox="0 0 32 32"><path d="M32 16c0 8.837-7.163 16-16 16S0 24.837 0 16 7.163 0 16 0s16 7.163 16 16z"/></symbol><symbol id="icon-icetruck" viewBox="0 0 32 32"><path d="M11.167 3.133c-1.233 0.567-2.333 1.733-2.8 2.967-0.733 1.933-0.833 1.9 5 1.9h5.4l-0.233-1.1c-0.233-1.233-1.033-2.433-2.267-3.333-1.133-0.833-3.767-1.067-5.1-0.433z"></path><path d="M1.733 8.4c-0.3 0.3-0.4 2.5-0.4 7.833v7.467l0.833 0.767c0.467 0.433 0.833 0.933 0.833 1.1s0.467 0.733 1.033 1.3c0.833 0.8 1.3 0.967 2.667 0.967 1.533 0 1.8-0.133 2.833-1.267l1.133-1.233h6.667l1.133 1.267c1.033 1.133 1.3 1.233 2.867 1.233s1.833-0.1 2.867-1.267c0.9-0.967 1.4-1.233 2.333-1.233 0.8 0 1.433-0.267 1.967-0.833 0.8-0.767 0.833-1 0.833-4.967 0-4.567 0.1-4.4-2.333-5.233l-1.5-0.533-0.1-2.433c-0.067-1.367-0.267-2.667-0.467-2.9s-1.067-0.433-1.967-0.433h-1.633v1.333c0 1.1 0.1 1.333 0.667 1.333 0.6 0 0.667 0.233 0.667 2.3 0 2.567 0.033 2.6 2.333 3.4l1.5 0.533 0.1 2.867c0.1 2.733 0.067 2.9-0.567 2.9-0.4 0-1.2-0.567-1.833-1.267-1.033-1.133-1.3-1.233-2.867-1.233s-1.833 0.1-2.867 1.233l-1.133 1.267h-6.667l-1.067-1.167c-1.333-1.433-3.033-1.833-4.567-1.067l-1.033 0.5v-5.133c0-4.9 0.033-5.133 0.667-5.133 0.567 0 0.667-0.233 0.667-1.333v-1.333h-1.6c-0.867 0-1.767 0.167-2 0.4zM7.667 23.167c0.867 1.067-0.433 2.7-1.567 1.967-0.767-0.467-0.933-1.367-0.433-1.967 0.533-0.633 1.467-0.633 2 0zM22.333 23.167c0.5 0.6 0.333 1.5-0.4 1.967-1.167 0.733-2.467-0.9-1.6-1.967 0.533-0.633 1.467-0.633 2 0z"></path><path d="M8.667 10.933c0 0.733 3.633 8.567 4.1 8.867 0.4 0.267 0.733 0.267 1.133 0 0.467-0.3 4.1-8.133 4.1-8.867 0-0.133-2.1-0.267-4.667-0.267s-4.667 0.133-4.667 0.267z"></path></symbol><symbol id="icon-icecoffee" viewBox="0 0 32 32"><path d="M17.824 1.504c-0.128 0.096-0.224 0.416-0.224 0.704 0 0.416-0.384 0.512-2.016 0.512-1.6 0-2.304 0.192-3.488 0.896-1.856 1.088-3.36 2.848-3.84 4.544-0.224 0.704-0.768 1.632-1.28 2.080-0.672 0.608-0.896 1.12-0.96 2.24-0.096 1.344-0.032 1.44 0.768 1.536 0.512 0.064 0.96 0.352 1.056 0.736 0.192 0.576 0.576 0.608 8.16 0.608s7.968-0.032 8.16-0.608c0.096-0.384 0.544-0.672 1.056-0.736 0.8-0.096 0.864-0.192 0.768-1.536-0.064-1.152-0.256-1.6-1.024-2.272-0.544-0.448-0.96-0.992-0.96-1.216 0-0.192-0.352-1.056-0.8-1.92-0.768-1.568-2.24-3.008-3.616-3.648-0.608-0.288-0.736-0.512-0.576-1.248 0.128-0.704 0.064-0.896-0.416-0.896-0.32 0-0.672 0.096-0.768 0.224zM16.96 4.064c0 0.16-0.32 1.44-0.704 2.88l-0.736 2.656h-3.104c-1.728 0-3.136-0.128-3.136-0.288 0-1.408 2.144-4.032 4-4.864 1.28-0.608 3.68-0.832 3.68-0.384zM20.448 5.6c1.152 1.056 2.272 2.848 2.272 3.648 0 0.224-0.992 0.352-2.88 0.352-1.568 0-2.88-0.096-2.88-0.192 0-0.928 1.472-4.928 1.824-4.928 0.224 0 0.96 0.512 1.664 1.12zM24.576 11.904l0.096 0.896h-17.312v-0.736c0-0.416 0.096-0.864 0.224-0.96 0.128-0.128 3.968-0.192 8.544-0.16l8.352 0.096 0.096 0.864z"></path><path d="M8.192 17.664c0.096 0.576 0.416 3.2 0.768 5.792 0.416 3.456 0.736 4.928 1.152 5.376 0.512 0.544 1.024 0.608 5.888 0.608s5.376-0.064 5.888-0.608c0.416-0.448 0.736-1.92 1.152-5.376 0.352-2.592 0.672-5.216 0.768-5.792l0.16-1.024h-15.936l0.16 1.024zM14.624 18.944c0.576 0.576 1.056 1.152 1.056 1.344 0 0.416-1.952 2.432-2.368 2.432s-2.432-1.952-2.432-2.368c0-0.416 1.952-2.432 2.368-2.432 0.192 0 0.8 0.448 1.376 1.024zM19.68 24.96v1.76h-3.52l-0.096-1.408c-0.16-2.144 0-2.304 1.92-2.208l1.696 0.096v1.76z"></path></symbol><symbol id="icon-icecream1" viewBox="0 0 32 32"><path d="M13.689 2.809c-1.351 0.818-2.169 1.742-2.631 2.987-0.213 0.533-0.604 0.96-0.889 0.96-0.747 0-2.631 1.671-3.236 2.88-0.284 0.533-0.533 1.422-0.533 1.956s-0.284 1.138-0.604 1.387c-0.569 0.427-0.569 0.604 0.107 2.738l0.711 2.24h18.773l0.711-2.24c0.676-2.133 0.676-2.311 0.107-2.738-0.32-0.249-0.604-0.853-0.604-1.387 0-1.849-1.671-4.053-3.627-4.8-0.569-0.213-0.996-0.604-0.996-0.889 0-0.747-1.671-2.631-2.88-3.236-1.351-0.711-3.129-0.676-4.409 0.142zM17.956 5.084c0.533 0.427 1.067 1.351 1.209 2.027 0.213 1.031 0.427 1.244 1.458 1.458 1.529 0.32 2.844 1.813 2.844 3.2v1.031h-14.933v-1.102c0-0.711 0.356-1.422 1.031-2.133 1.138-1.102 2.276-1.28 3.769-0.604 0.747 0.32 1.031 0.32 1.493-0.178 0.462-0.462 0.498-0.676 0.142-1.102-0.249-0.284-0.747-0.64-1.138-0.747-0.96-0.32-0.853-1.067 0.249-1.92 1.244-0.96 2.702-0.96 3.876 0.071z"></path><path d="M9.6 20.373c0 0.142 2.347 7.040 2.667 7.822 0.64 1.529 4.196 2.204 6.222 1.138 0.853-0.427 1.209-1.138 2.418-4.8l1.458-4.267h-6.4c-3.484 0-6.364 0.036-6.364 0.107z"></path></symbol><symbol id="icon-milkshake" viewBox="0 0 32 32"><path d="M8.32 1.888c0 0.608 0.256 0.672 3.264 0.736l3.296 0.096 0.384 2.368-1.536 0.352c-3.232 0.8-5.888 3.296-6.848 6.496-0.64 2.144-0.608 3.072 0.096 3.328 0.736 0.288 1.024 0.736 1.024 1.76v0.864l4.576 0.096c3.776 0.096 4.544 0.16 4.544 0.576 0 0.384-0.736 0.48-4.384 0.576-3.232 0.064-4.416 0.192-4.416 0.48 0 0.864 1.312 10.592 1.472 10.848 0.224 0.352 12.192 0.352 12.416 0 0.16-0.256 1.472-9.984 1.472-10.848 0-0.256-0.736-0.416-2.144-0.48-1.696-0.064-2.176-0.192-2.176-0.576s0.512-0.512 2.336-0.576c2.272-0.096 2.304-0.096 2.304-0.96 0-1.024 0.288-1.472 1.056-1.76 0.672-0.256 0.704-1.184 0.064-3.328-0.96-3.2-3.040-5.216-6.56-6.368l-2.048-0.672-0.352-1.728-0.32-1.728-3.744-0.096c-3.584-0.064-3.776-0.064-3.776 0.544zM19.712 7.296c2.144 1.088 3.776 3.296 4.416 5.888l0.192 0.896h-16.64l0.192-0.896c0.768-3.232 2.848-5.504 5.888-6.496 1.312-0.448 4.544-0.096 5.952 0.608z"></path></symbol><symbol id="icon-check" viewBox="0 0 32 32"><path fill="#fff" style="fill: var(--color1, #fff); stroke: var(--color1, #fff)" stroke="#fff" stroke-linejoin="miter" stroke-linecap="butt" stroke-miterlimit="4" stroke-width="0.4267" d="M6.308 16.537l-0.147-0.14-2.205 2.088 7.767 7.41 16.318-15.567-2.19-2.089-14.128 13.465-5.416-5.167z"></path></symbol></defs></svg>