<svg aria-hidden="true" style="position:absolute;width:0;height:0;overflow:hidden" xmlns="http://www.w3.org/2000/svg"><defs>
<symbol id="icon-logo" viewBox="0 0 32 32"><path fill="#ff8a8a" style="fill:var(--color1, #ff8a8a)" d="M26.645 16.129c-.387-.387-.839-.645-1.355-.774v-2.71c0-1.548-.516-2.968-1.484-4.194-1.677-2.129-4.516-3.548-7.871-3.548S9.741 6.322 8.064 8.451c-.903 1.226-1.484 2.645-1.484 4.194v2.71c-.516.129-.968.387-1.355.774-.581.516-.839 1.29-.839 2s.258 1.419.839 2c.387.387.839.645 1.355.774v4.323c0 1.226.387 2.323 1.29 3.097.71.581 1.548.903 2.581 1.032V32h1.935v-2.581h7.097V32h1.935v-2.645c1.161-.129 2.065-.581 2.71-1.226.839-.839 1.161-1.935 1.161-2.903v-4.323c.516-.129.968-.387 1.355-.774.581-.516.839-1.29.839-2s-.258-1.419-.839-2zM16 6.839c2.452 0 4.516.968 5.806 2.258-.387.452-.839.839-1.419 1.226-.903.581-2.258 1.032-4.387 1.032s-3.29-.387-4.129-.903c-.645-.387-1.097-.839-1.677-1.419 1.355-1.29 3.355-2.194 5.806-2.194zm-7.484 5.806c0-.71.194-1.355.452-2 .516.516 1.097 1.097 1.806 1.484 1.226.71 2.774 1.161 5.161 1.161s4.129-.516 5.355-1.29c.645-.387 1.161-.839 1.613-1.29.323.645.452 1.29.452 1.935v2.581H8.516v-2.581zm14.839 12.581c0 .645-.194 1.161-.581 1.548s-1.032.71-2.323.71h-9.032c-1.161 0-1.871-.258-2.258-.581s-.645-.839-.645-1.677v-4.194h7.419v2.258c0 .903.387 1.613.968 2.065s1.29.645 1.935.645 1.355-.194 1.935-.645c.581-.516.968-1.161.968-2.065v-2.258h1.613v4.194zm1.935-6.452c-.194.194-.452.323-.968.323h-4.516v4.194c0 .258-.129.387-.258.516s-.452.194-.71.194c-.258 0-.516-.065-.71-.194s-.258-.258-.258-.516v-4.194H7.547c-.516 0-.839-.194-.968-.323-.194-.194-.258-.387-.258-.645s.065-.452.258-.645.452-.323.968-.323h16.774c.516 0 .839.194.968.323.194.194.258.387.258.645s-.065.452-.258.645z"/></symbol>
<symbol id="icon-milk" viewBox="0 0 20 32"><path fill="#ffa5ba" style="fill:var(--color2, #ffa5ba)" d="m0 13.312.064.896c.064.384.128.832.192 1.344l2.752 16.384h14.144l3.136-18.56H0zm1.856 1.536h16.576c-.32 1.152-1.024 2.624-2.112 3.904-1.408 1.6-3.456 2.816-6.464 2.816s-4.992-1.28-6.208-2.816c-.96-1.152-1.472-2.496-1.728-3.648l-.064-.256zm14.016 15.36H4.416l-1.664-9.984c1.536 1.728 3.84 3.008 7.104 3.008 3.52 0 6.016-1.536 7.68-3.392l.192-.192-1.856 10.56zM2.176 7.744c1.088.832 2.688.576 3.968-.576.256.128.512.256.704.32s.448.128.64.192v1.28c0 1.792 1.344 2.816 2.688 2.816.64 0 1.344-.192 1.92-.704s.832-1.28.832-2.176v-1.28c.384-.128.832-.256 1.28-.576 1.152 1.216 2.816 1.472 3.904.704.704-.448 1.024-1.216.96-2.176-.128-.576-.512-1.344-1.152-2.112.256-.384.384-.704.512-1.088.192-.512.256-1.152.192-1.6l-.128-.64H1.664v.768c0 1.024.256 1.856.512 2.432-.576.832-.896 1.6-.96 2.304-.064.832.32 1.6.96 2.112zm1.6-4.672c-.064-.128-.32-.64-.448-1.344H16.96c0 .064 0 .064-.064.128-.128.384-.32.768-.64 1.024l-.576.576.576.576c.832.832 1.088 1.408 1.152 1.792.064.32-.064.512-.256.64-.384.256-1.408.256-2.24-.896l-.448-.704-.704.512c-.896.704-1.664.768-1.728.768h-.768V8.96c0 .512-.192.832-.32.96-.192.192-.448.256-.768.256-.576 0-1.152-.448-1.152-1.216V6.4l-.64-.128c-.256-.064-.64-.128-1.024-.32-.384-.128-.704-.32-.832-.448l-.64-.64-.512.704c-.96 1.216-1.92 1.088-2.24.832-.192-.064-.32-.32-.32-.704s.256-.96.896-1.664l.384-.448-.32-.512z"/></symbol>
<symbol id="icon-icecream" viewBox="0 0 28 32"><path fill="#ffa5ba" style="fill:var(--color2, #ffa5ba)" d="M14.955 4.934c-.184.151-.483.347-.875.347-.378 0-.668-.176-.857-.33-.187-.152-.353-.345-.492-.514-.077-.094-.152-.189-.228-.284-.222-.28-.449-.567-.749-.867-.748-.748-1.911-1.526-4.074-1.526-1.872 0-3.714 1.014-4.787 2.768-1.021 1.668-1.378 4.068-.265 6.973.221.038.443.028.602-.045.133-.061.45-.263.45-1.216 0-.928.344-1.679.929-2.182.568-.488 1.296-.684 1.982-.658 1.346.052 2.849 1.016 2.849 2.839v2.88c0 .2.078.329.221.433.166.121.432.207.739.207s.573-.086.739-.207c.143-.104.221-.232.221-.433v-2.88c0-.822.368-1.464.938-1.868.539-.382 1.206-.517 1.816-.492.612.026 1.252.216 1.761.59.524.386.926.988.926 1.769v2.88c0 .17.068.297.244.414.199.133.515.226.876.226s.677-.093.876-.226c.176-.117.244-.245.244-.414v-2.88c0-1.708 1.217-2.78 2.524-2.839.646-.029 1.313.192 1.816.703.506.513.78 1.251.78 2.136 0 .465.098.735.196.89.094.149.221.244.384.307.276.105.638.105.968.045 1.22-2.844.775-5.152-.339-6.794-1.187-1.75-3.173-2.803-4.946-2.929-1.956-.14-3.1.61-3.897 1.408-.316.316-.563.623-.804.922-.084.104-.167.207-.251.308-.151.181-.325.381-.515.537zm9.907 8.165c-.231-.028-.465-.081-.692-.167-.445-.17-.865-.47-1.167-.947-.298-.471-.443-1.057-.443-1.744 0-.554-.166-.857-.32-1.014-.157-.159-.37-.238-.604-.227-.453.021-.996.389-.996 1.241v2.88c0 .79-.412 1.383-.956 1.746-.521.347-1.165.494-1.764.494s-1.243-.147-1.764-.494c-.544-.363-.956-.955-.956-1.746v-2.88c0-.179-.078-.336-.274-.481-.211-.155-.531-.265-.879-.28-.35-.015-.643.07-.824.199-.151.107-.262.264-.262.562v2.88c0 .759-.362 1.351-.88 1.727-.494.359-1.108.513-1.681.513s-1.187-.154-1.681-.513c-.517-.376-.879-.968-.879-1.727v-2.88c0-.736-.577-1.212-1.311-1.241-.354-.014-.666.091-.878.272-.195.168-.371.456-.371.968 0 1.351-.5 2.269-1.387 2.672-.177.08-.357.134-.536.167.159.295.332.593.522.896 2.824 4.518 6.285 6.79 8.588 7.744.655.271 1.203.43 1.605.507.38-.082.924-.258 1.596-.565 2.163-.99 5.486-3.271 8.64-7.724.201-.284.386-.564.555-.839zM15.394 2.034C16.436.992 18.012-.019 20.537.162c2.258.161 4.691 1.469 6.156 3.627 1.494 2.202 1.943 5.231.312 8.711-.361.769-.821 1.558-1.392 2.363-3.104 4.383-6.411 6.826-8.813 8.03v8.948h-5.44v-8.858c-2.557-1.174-6.014-3.639-8.838-8.158-.501-.801-.908-1.588-1.229-2.355C-.158 9 .163 5.925 1.529 3.694 2.883 1.481 5.233.162 7.681.162c2.637 0 4.194.983 5.206 1.994.373.373.68.761.909 1.051.064.081.123.155.174.218.043.052.08.096.113.133.044-.049.097-.109.158-.183.059-.071.125-.154.198-.244.249-.309.574-.713.956-1.096zM12.96 23.596v6.644h2.24v-6.671c-.367.123-.697.209-.981.259l-.132.023-.132-.021c-.292-.046-.627-.124-.995-.235z"/></symbol>
<symbol id="icon-fruit" viewBox="0 0 31 32"><path fill="#ffa5ba" style="fill:var(--color2, #ffa5ba)" d="M19.169.442c.198.395.037.876-.358 1.073-.399.2-1.44 1.146-1.566 3.263 1.355-.887 2.967-.942 4.238-.133 1.546.984 2.258 3.018 1.59 5.595h.98v.8c0 .807-.118 1.789-.407 2.829l-1.07 7.275c.626.051 1.127.18 1.534.345.057-.584.165-1.124.357-1.618.352-.906.962-1.597 1.894-2.156.379-.227.87-.104 1.098.274s.104.87-.274 1.098c-.668.401-1.018.83-1.226 1.364-.08.205-.142.434-.188.693.774-.338 1.769-.451 2.918.041 1.394.598 2.091 1.709 2.379 2.814.281 1.078.187 2.178.002 2.916-.192.77-.822 2.109-1.863 3.104-1.02.976-2.508 1.673-4.332 1.08-.913.349-1.764.382-2.534.16-.674-.195-1.234-.57-1.691-1.009l-.238 1.43H4.034L.524 13.545c-.277-.898-.422-1.743-.468-2.453l-.055-.852h.56c-.061-.838.044-1.816.525-2.666.357-.632.914-1.173 1.713-1.508.318-.133.666-.23 1.046-.29-.391-.693-.554-1.449-.575-2.169-.037-1.249.343-2.436.708-3.165.198-.395.678-.555 1.073-.358s.555.678.358 1.073c-.275.551-.567 1.476-.54 2.402.015.503.121.989.366 1.424.633-1.409 1.938-2.223 3.301-2.421 1.665-.242 3.556.423 4.441 2.124.323-.147.699-.245 1.117-.255.503-.012 1.025.106 1.549.379.122-2.693 1.45-4.226 2.453-4.727.395-.198.876-.037 1.073.358zm-5.637 5.756c.387 1.496.279 2.85-.046 4.042h7.923c.757-2.356.038-3.721-.785-4.245-.903-.575-2.368-.443-3.444 1.035l-.589.81-.66-.754c-.784-.896-1.411-1.064-1.8-1.055-.231.005-.436.075-.599.166zm8.795 5.642H1.823l.254 1.314c.368 1.162.992 2.433 1.96 3.567 1.611 1.886 4.213 3.44 8.336 3.44 4.121 0 6.604-1.552 8.076-3.416.804-1.018 1.321-2.149 1.629-3.212l.249-1.693zm-.92 6.256c-1.816 2.092-4.696 3.664-9.034 3.664-4.434 0-7.434-1.641-9.363-3.784L5.353 30.08h13.702l.209-1.252c.019-.115.062-.219.122-.31-.404-.768-.643-1.501-.749-1.924-.198-.792-.192-2.078.227-3.195.214-.57.552-1.142 1.073-1.574.291-.241.625-.429 1.003-.55l.468-3.179zM2.165 10.24h9.65c.401-1.203.546-2.547.042-4.068-.062-.188-.135-.381-.219-.577-.469-1.093-1.666-1.624-2.872-1.448-1.166.169-2.191.984-2.316 2.479l-.069.825-.822-.097c-.993-.117-1.677-.008-2.144.187-.455.191-.747.481-.939.82-.306.54-.376 1.243-.312 1.878zm25.893 12.415c-1.304-.559-2.234.211-2.539.669l-.444.666-.666-.444c-.122-.081-.202-.146-.276-.205-.122-.099-.225-.182-.47-.3-.321-.156-.84-.32-1.691-.32-.459 0-.777.138-1.014.335-.249.207-.451.516-.597.906-.301.803-.295 1.757-.173 2.245.14.558.578 1.781 1.342 2.652.374.427.792.73 1.253.863.445.129 1.009.122 1.738-.209l.311-.141.317.127c1.231.492 2.189.093 2.95-.635.799-.764 1.289-1.826 1.417-2.336.135-.542.201-1.362.002-2.124-.192-.735-.615-1.384-1.461-1.747z"/></symbol>
<symbol id="icon-menu" viewBox="0 0 46 32"><path fill="#d41443" style="fill:var(--color3, #d41443)" d="M45.714 3.429H0V1.143h45.714v2.286zM45.714 17.143H0v-2.286h45.714v2.286zM45.714 30.857H0v-2.286h45.714v2.286z"/></symbol>
<symbol id="icon-close" viewBox="0 0 32 32"><path fill="#fff" style="fill:var(--color4, #fff)" d="m28.761 30.693-26.963-28 1.441-1.387 26.963 28-1.441 1.387z"/><path fill="#fff" style="fill:var(--color4, #fff)" d="m30.694 3.239-28 26.963-1.387-1.441 28-26.963 1.387 1.441z"/></symbol>
<symbol id="icon-arrow" viewBox="0 0 51 32"><path fill="#d41443" style="fill:var(--color3, #d41443)" d="M26.253 1.263c1.07-1.407 3.078-1.679 4.484-.609l16.825 12.8c.796.605 1.262 1.547 1.262 2.547s-.467 1.942-1.262 2.547l-16.825 12.8c-1.407 1.07-3.414.797-4.484-.609s-.797-3.414.609-4.484L40.34 16.002 26.863 5.749c-1.407-1.07-1.679-3.078-.609-4.484z"/><path fill="#d41443" style="fill:var(--color3, #d41443)" d="M1.6 16c0-1.767 1.433-3.2 3.2-3.2h40c1.767 0 3.2 1.433 3.2 3.2s-1.433 3.2-3.2 3.2h-40c-1.767 0-3.2-1.433-3.2-3.2z"/></symbol>
<symbol id="icon-angle" viewBox="0 0 26 32"><path fill="#d41443" style="fill:var(--color3, #d41443)" d="M.995 1.263C2.065-.144 4.073-.416 5.479.654l16.825 12.8c.795.605 1.262 1.547 1.262 2.547s-.467 1.942-1.262 2.547l-16.825 12.8c-1.407 1.07-3.414.797-4.484-.609s-.797-3.414.609-4.484l13.478-10.253L1.604 5.749C.197 4.679-.075 2.671.995 1.265z"/></symbol>
<symbol id="icon-facebook" viewBox="0 0 16 32"><path fill="#fff" style="fill:var(--color4, #fff)" d="M14.266 15.97H10.09v15.39H3.763V15.97H.754v-5.409h3.009v-3.5c0-2.503 1.182-6.422 6.384-6.422l4.687.02v5.25h-3.401c-.558 0-1.342.28-1.342 1.474v3.183h4.729l-.553 5.403z"/></symbol>
<symbol id="icon-telegram" viewBox="0 0 40 32"><path fill="#fff" style="fill:var(--color4, #fff)" d="m16.205 20.751-.635 8.339c.909 0 1.302-.364 1.774-.802l4.261-3.801 8.829 6.035c1.619.842 2.76.399 3.197-1.39l5.797-25.346c.514-2.234-.866-3.108-2.443-2.56L2.92 13.398c-2.325.842-2.29 2.052-.395 2.6l8.709 2.528L31.463 6.712c.952-.588 1.818-.263 1.106.326L16.205 20.751z"/></symbol>
<symbol id="icon-github" viewBox="0 0 32 32"><path fill="#fff" style="fill:var(--color4, #fff)" d="M16 .941C7.729.941.941 7.729.941 16c0 7.058 4.953 13.47 11.529 15.059v-4.982c-.652.143-1.251.147-1.915-.049-.89-.263-1.613-.856-2.15-1.76-.342-.577-.949-1.203-1.581-1.157l-.155-1.758c1.368-.117 2.551.833 3.254 2.013.312.525.671.832 1.132.969.446.131.924.068 1.481-.129.14-1.116.651-1.534 1.037-2.122v-.001c-3.922-.585-5.486-2.666-6.106-4.308-.822-2.181-.381-4.905 1.073-6.627.028-.034.079-.121.06-.183-.667-2.014.146-3.679.176-3.856.769.228.894-.229 3.342 1.258l.423.254c.177.105.121.045.298.032 1.022-.278 2.099-.431 3.16-.445 1.069.014 2.14.167 3.204.456l.137.014c-.012-.002.037-.009.12-.058 3.057-1.852 2.947-1.247 3.767-1.513.03.177.831 1.87.172 3.858-.089.274 2.65 2.782 1.132 6.809-.62 1.643-2.184 3.724-6.106 4.309v.001c.503.766 1.107 1.174 1.104 2.755v6.219c6.577-1.589 11.529-8.001 11.529-15.059C31.058 7.728 24.271.94 15.999.94z"/></symbol>
<symbol id="icon-home" viewBox="0 0 35 32"><path fill="#d31342" style="fill:var(--color5, #d31342)" d="M32.64 15.401c.599-.65.541-1.646-.129-2.225L17.739.426c-.671-.578-1.745-.566-2.402.027L.515 13.856c-.656.594-.689 1.589-.071 2.222l.372.382c.617.633 1.613.708 2.224.168l1.108-.979v14.326c0 .879.722 1.591 1.612 1.591h5.778c.89 0 1.612-.712 1.612-1.591V19.952h7.37v10.023c-.013.878.624 1.59 1.515 1.59h6.123c.89 0 1.613-.711 1.613-1.59V15.851s.306.264.683.592 1.168.065 1.767-.586l.42-.455z"/></symbol>
<symbol id="icon-quote" viewBox="0 0 43 32"><path fill="#e1e1e1" style="fill:var(--color6, #e1e1e1)" d="M32.014 0c1.929 0 3.75.52 5.464 1.561s3.107 2.537 4.179 4.488C42.686 8 43.2 10.298 43.2 12.943s-.643 5.225-1.929 7.74c-.429.911-1.2 2.081-2.314 3.512-1.157 1.431-2.229 2.667-3.214 3.707L31.693 32 28.8 27.187c2.014-1.257 3.793-2.818 5.336-4.683 1.543-1.821 2.314-3.491 2.314-5.008 0-.78-.171-1.409-.514-1.886-1.5 1.084-3.171 1.626-5.014 1.626-1.329 0-2.593-.412-3.793-1.236-1.243-.78-2.229-1.821-2.957-3.122-.771-1.258-1.157-2.558-1.157-3.902 0-1.518.45-2.97 1.35-4.358.857-1.388 1.993-2.515 3.407-3.382C29.143.412 30.558 0 32.015 0zM8.936 0c1.929 0 3.75.52 5.464 1.561s3.107 2.537 4.179 4.488c1.029 1.951 1.543 4.249 1.543 6.894 0 1.864-.236 3.534-.707 5.008-.471 1.518-1.286 3.1-2.443 4.748-1.114 1.561-2.164 2.862-3.15 3.902-.986 1.084-2.7 2.884-5.143 5.398l-2.893-4.813c2.014-1.257 3.793-2.818 5.336-4.683 1.543-1.821 2.314-3.491 2.314-5.008 0-.78-.171-1.409-.514-1.886-1.5 1.084-3.171 1.626-5.014 1.626-1.329 0-2.593-.412-3.793-1.236-1.243-.78-2.229-1.821-2.957-3.122C.387 11.619.001 10.319.001 8.975c0-1.518.429-2.97 1.286-4.358S3.28 2.102 4.694 1.235C6.065.411 7.48-.001 8.937-.001z"/></symbol>
<symbol id="icon-circle" viewBox="0 0 32 32"><path fill="#fff" style="fill:var(--color4, #fff)" d="M32 16c0 8.837-7.163 16-16 16S0 24.837 0 16 7.163 0 16 0s16 7.163 16 16z"/></symbol></defs></svg>